<?xml version="1.0" encoding="utf-8"?>
<!-- Generator: Adobe Illustrator 23.0.1, SVG Export Plug-In . SVG Version: 6.00 Build 0)  -->
<svg version="1.1" id="图层_25" xmlns="http://www.w3.org/2000/svg" xmlns:xlink="http://www.w3.org/1999/xlink" x="0px" y="0px"
	 width="16px" height="16px" viewBox="0 0 16 16" style="enable-background:new 0 0 16 16;" xml:space="preserve">
<style type="text/css">
	.st0{fill:#FFFFFF;}
</style>
<g id="_16">
	<rect x="13" y="9" class="st0" width="1" height="1"/>
	<path class="st0" d="M15,12v-2h-1v2h-1v-2h-1v2h-1v3h5v-3H15z"/>
	<path class="st0" d="M8,14.5c-1,0-1.8-0.8-1.8-1.8S7,10.9,8,10.9s1.8,0.8,1.8,1.8S9,14.5,8,14.5L8,14.5z"/>
	<path class="st0" d="M5.4,10.3c1.4-1.4,3.6-1.4,5-0.1l0.1,0.1l0.7-0.7C9.5,7.8,6.6,7.8,4.9,9.5L4.8,9.6L5.4,10.3z"/>
	<path class="st0" d="M3.1,7.9c2.7-2.7,7-2.8,9.8-0.1L13,7.9l0.7-0.7c-3.1-3.1-8-3.1-11.1-0.1L2.5,7.2L3.1,7.9z"/>
	<path class="st0" d="M0.7,5.5c4-4,10.5-4.1,14.5-0.1l0.1,0.1L16,4.8C11.6,0.4,4.5,0.4,0.1,4.7L0,4.8L0.7,5.5z"/>
</g>
</svg>
